<?xml version='1.0' encoding='utf-8'?>
<svg xmlns="http://www.w3.org/2000/svg" version="1.1" width="600px" height="976px" viewBox="0 0 600 976"> <g id="layer1"> <g style="fill:rgb(50,138,143); fill-opacity:1.0; stroke-linejoin: miter"> <path d="M311.8272,346.2009Q250.225,347.0439,206.09962,389.65793Q162.7439,433.85202,161.70349,495.65594Q162.34546,557.4782,205.2632,601.9101Q249.9114,645.38934,311.27557,646.2028Q372.8813,645.48724,417.1057,602.94696Q460.55286,558.8227,461.7036,497.018Q461.1693,435.19748,418.3463,390.6965Q373.7918,347.14206,312.4378,346.20212L311.8272,346.2009 Z"/> </g> <g style="fill:rgb(0,0,0); fill-opacity:1.0; stroke-linejoin: miter"> <path d="M365.38968,410.93655C365.28415,410.93655,365.1784,410.93704,365.07245,410.93802C364.9458,410.9392,364.81885,410.9411,364.6916,410.94366C364.62225,410.945,364.55402,410.94632,364.48657,410.94772C362.8341,410.98248,361.74945,411.0707,359.9616,411.3076C359.26468,411.39713,355.86063,412.08392,355.4041,412.22397C355.26978,412.26483,354.8131,412.40485,354.38147,412.52792C349.83398,413.88367,345.74115,416.32098,342.84283,419.39688C341.24637,421.08762,339.84232,423.1601,338.89627,425.23013C337.65726,427.92618,337.02783,430.91846,337.07794,433.8998C337.10504,435.77963,337.39648,436.90256,338.14124,438.0009L338.3625,438.3309L338.112,438.94153C337.69617,439.94974,337.06848,441.2735,335.86078,443.69333C333.92358,447.57358,333.28906,448.99652,332.92255,450.30908C332.63055,451.35886,332.61737,451.98083,332.86737,452.442C333.17535,453.01105,333.74463,453.3337,335.0766,453.68433C335.60413,453.8221,335.84854,453.87204,336.09937,453.87204C336.10526,453.87204,336.11115,453.872,336.11707,453.87195C336.12482,453.87186,336.13257,453.87177,336.14032,453.87158C336.19427,453.8705,336.24927,453.8672,336.30792,453.862C336.529,453.8449,336.72638,453.83417,336.90326,453.83044C336.92975,453.8299,336.9558,453.8295,336.98145,453.82925C337.0006,453.82907,337.0195,453.82898,337.03815,453.82898C337.68497,453.82898,338.0342,453.93692,338.2699,454.1839C338.4848,454.40646,338.5288,454.71207,338.4638,455.43704C338.43048,455.78256,338.40796,456.17734,338.4214,456.31766C338.43726,456.65244,338.36023,456.9559,338.1046,457.51636C337.7907,458.20395,337.74017,458.44437,337.82336,458.7987C337.948,459.3161,338.29382,459.613,339.32172,460.09314C339.54425,460.19354,339.74866,460.3152,339.77448,460.35532C339.8603,460.48553,339.74817,460.78534,339.386,461.40915C339.04193,462.0118,338.95,462.2727,339.00507,462.5241C339.05054,462.73203,339.1377,462.8162,339.9192,463.4019C340.8457,464.09924,341.23297,464.5593,341.40503,465.1634C341.5191,465.58,341.5207,465.614,341.35114,467.17026C341.10358,469.41983,341.14203,470.27704,341.5247,471.0302C341.99704,471.9586,343.36166,472.95584,344.62344,473.2989C345.20163,473.45316,345.59396,473.51657,346.25885,473.54297L346.77997,473.56665L351.5179,472.55902L356.24954,471.54697L356.5153,471.74097C356.8649,472.0028,357.5472,472.86816,357.98703,473.62036C358.26456,474.09106,358.55814,474.6508,358.8638,475.29236L358.8564,475.29248Q358.5909,475.4306,358.3325,475.56424L358.34,475.56412C358.4061,475.6679,358.47244,475.7687,358.53867,475.86578C360.24796,478.28683,360.24918,478.34818,359.1174,480.03033C355.66458,485.2624,354.376,491.18597,354.51413,500.70364C354.66476,507.88715,354.21854,510.04626,352.00485,512.8567C351.0482,514.1053,349.0767,519.67474,347.88394,524.30646C346.8624,528.32056,346.13922,534.8463,345.8794,542.9597C345.81445,545.72504,345.56274,548.37146,345.32495,548.74506C345.02698,549.1813,344.7818,552.1348,344.6645,555.3312L344.41846,561.17163L339.0116,561.10077C338.70303,561.09674,338.40558,561.0947,338.11926,561.0947C337.94342,561.0947,337.77176,561.0955,337.6043,561.09705C337.41638,561.0988,337.23376,561.10156,337.05646,561.1053C334.62665,561.1562,333.18512,561.39264,332.7008,561.8472C332.21747,562.2259,330.13885,562.69946,328.05518,562.9273C327.52643,562.963,327.05695,562.98956,326.6253,562.99866C326.56476,562.9999,326.505,563.00085,326.44592,563.0014C326.40326,563.00183,326.36093,563.002,326.31897,563.002C323.70718,563.002,322.392,562.2161,317.02753,558.42883C315.8418,557.5324,313.60968,556.535,312.0644,556.0759C310.52057,555.6784,308.9101,555.0366,308.53522,554.7373C308.2867,554.56757,307.68088,554.48486,306.94507,554.48486C306.91403,554.48486,306.88278,554.485,306.85132,554.4853C306.8106,554.48566,306.76953,554.48627,306.72815,554.4872C306.22876,554.4976,305.68274,554.54364,305.15466,554.62396C303.68628,554.90015,300.62292,555.2716,298.23236,555.5062C294.1878,555.9594,291.81537,557.05347,291.8463,558.5268C291.85266,558.8338,291.08014,560.0784,290.0609,561.2669C289.10175,562.3927,288.27307,563.88416,288.28595,564.4981C288.3222,566.2251,287.38434,566.90137,284.30212,566.96594C284.2138,566.9678,284.12378,566.9691,284.03192,566.97C283.95114,566.9707,283.869,566.9711,283.7854,566.9711C283.15356,566.9711,282.4416,566.9497,281.64142,566.91C278.87473,566.7838,274.38504,566.50934,271.6184,566.3831C268.79034,566.2582,266.20276,565.8824,265.82788,565.5832C265.69852,565.4769,265.55423,565.42474,265.39658,565.42474L265.39,565.42474C265.38733,565.4248,265.38464,565.42487,265.38196,565.42487C265.0091,565.4328,264.5622,565.73004,264.06146,566.2957C263.40707,567.0638,262.7197,567.464,261.80234,567.4833C261.78958,567.4835,261.77676,567.48376,261.76382,567.4839C261.7534,567.484,261.74295,567.484,261.73245,567.484C260.64227,567.484,259.22864,566.9589,257.1736,565.8874C255.4149,564.9544,254.5956,564.5297,253.9802,564.5297C253.97606,564.5297,253.97194,564.5297,253.96782,564.5298C253.96272,564.52985,253.95769,564.52985,253.95265,564.53C253.45195,564.54047,253.08147,564.8368,252.43318,565.37256C251.48409,566.1509,250.85533,566.5161,250.20058,566.5299C250.1934,566.53,250.18623,566.53015,250.17906,566.5302C250.17336,566.5303,250.16766,566.5303,250.16196,566.5303C249.66232,566.5303,249.14357,566.32697,248.45274,565.9475C248.07661,565.7079,247.74838,565.5689,247.38982,565.5689C247.38554,565.5689,247.38127,565.5689,247.37698,565.569C247.37154,565.56903,247.3661,565.56915,247.36066,565.5693C246.47847,565.58777,245.40181,566.44543,242.98244,568.70337C240.93617,570.7118,240.52187,571.45746,240.56302,573.42224C240.60162,575.264,241.0507,576.17596,242.67918,577.6774L244.74646,579.5997L276.24268,578.9393C280.04852,578.86804,283.40735,578.8027,286.37335,578.7404C304.89185,578.35236,308.09747,578.0915,309.19308,577.3273C310.94925,576.1235,310.98862,575.0784,309.3615,573.6383C308.67328,573.0386,308.1053,572.31335,308.09888,572.0064C308.09125,571.6405,308.28705,571.46356,308.62732,571.4565C308.6313,571.45636,308.63525,571.45636,308.63928,571.4563C308.64252,571.4563,308.64578,571.45624,308.64905,571.45624C309.39886,571.45624,310.8198,572.25006,312.3098,573.63806C314.93982,576.0398,317.2987,577.2189,320.7472,577.63806C323.51776,577.94836,324.33514,578.8526,323.8252,580.8902C323.03766,584.34656,323.16168,584.4053,327.46335,584.4992C330.96545,584.5487,331.64594,584.78015,331.9121,585.7573C332.1089,586.47955,332.7776,586.95337,333.44336,586.95337C333.4477,586.95337,333.45203,586.95337,333.45636,586.9533C333.46185,586.95325,333.46735,586.9531,333.47278,586.953C333.48553,586.95276,333.4983,586.9526,333.511,586.95245C333.52133,586.95233,333.53168,586.95233,333.542,586.95233C334.2518,586.95233,334.89606,587.1787,335.0807,587.4724C335.52466,588.1387,331.58533,590.6781,330.17325,590.7077C329.62057,590.71924,328.0463,591.79645,326.59848,593.05536C321.1132,598.02264,319.2407,599.5362,318.74954,599.5465C318.44247,599.5529,317.35556,600.4357,316.271,601.44116C314.40497,603.26166,314.2221,603.3268,307.77554,603.4619C304.1531,603.53796,300.3517,603.8633,299.31573,604.25354C298.2785,604.5824,293.3259,605.66895,288.2482,606.6354C271.24164,609.94,266.35318,611.14813,262.891,613.002C260.21912,614.4707,259.13968,615.72174,257.4965,619.3802C256.44034,621.7363,256.2831,623.0295,256.60068,626.46265C257.1594,632.59326,257.68002,633.995,260.69406,637.1261C260.77542,637.2106,260.85605,637.2956,260.93582,637.381L260.9384,637.381Q282.54065,645.1382,306.81064,646.0863L306.81064,646.0863C306.65387,645.3948,306.73688,645.0549,307.05927,645.0458L307.06604,645.0456L307.06818,645.04553L307.07272,645.04553C307.4204,645.04553,308.0348,645.4144,308.9156,646.12714C308.92792,646.137,308.9401,646.14685,308.95227,646.1567L308.95535,646.1567Q310.11246,646.1874,311.27557,646.2028Q372.8813,645.48724,417.1057,602.94696Q417.24905,602.8014,417.3919,602.65564L417.3961,602.65564C416.92227,600.444,416.75418,598.82904,416.93372,598.0412C417.35785,596.3057,419.86005,593.3943,420.83777,593.37384C420.83978,593.37384,420.8418,593.3737,420.8438,593.3737L420.8484,593.3737C420.90997,593.3737,420.96524,593.38574,421.01337,593.4102C421.32544,593.6494,421.58533,594.3195,421.5982,594.9335C421.60568,595.29,422.13876,596.02374,422.8649,596.8129L422.86493,596.8129Q428.00824,591.0621,432.471,585.0267L432.47534,585.0267C432.8006,582.9883,433.2684,579.9,433.5298,578.0992C433.7982,576.25085,434.28635,573.1693,434.55478,571.32104C434.82327,569.4729,435.30618,566.1459,435.56693,563.9291C435.88895,561.7112,436.44748,559.0582,436.85678,558.06683C437.01212,557.6962,437.14053,557.47095,437.2509,557.4686L437.25256,557.4686C437.63898,557.4686,437.80286,560.2218,438.1321,569.09625C438.2107,571.7709,438.32623,574.2471,438.45657,576.32635Q441.2558,571.94,443.7184,567.4129L443.72287,567.4129C443.7676,563.91943,444.02823,560.8444,444.50076,559.38086C445.60025,556.16364,445.49445,548.18085,444.4314,547.28174C443.9938,546.9225,442.81967,546.5785,441.77335,546.4776C440.05032,546.3293,439.92508,546.20905,439.999,543.8736C440.0934,542.52026,440.5331,540.05414,441.11105,538.32214C442.77957,532.94336,441.8785,528.0483,439.10153,527.4311C438.8655,527.3721,438.58725,527.34436,438.2769,527.34436C438.2606,527.34436,438.24417,527.3445,438.2277,527.3446C438.20633,527.3448,438.18478,527.34515,438.16312,527.3456C435.775,527.39557,431.64688,528.98553,430.07663,530.5685C429.21683,531.41223,428.394,531.9518,428.00436,531.96L427.99573,531.96C427.92575,531.96,427.87045,531.9424,427.83194,531.9055C427.5812,531.6651,427.4185,529.7643,427.43613,527.67566C427.48172,523.98914,425.07925,511.93896,423.46072,507.9804C422.48825,505.54388,419.25406,500.69785,416.67377,497.74213C415.54028,496.4146,414.59106,495.08316,414.5846,494.77618C414.54602,492.93433,405.56293,483.41782,401.1421,480.56226C400.45654,480.08517,399.70685,479.4867,399.5188,479.30627C399.33075,479.1261,398.20624,478.2282,396.95892,477.33307C395.21295,476.07977,394.5783,475.1103,394.23267,473.2748C394.02026,471.92795,392.99677,469.9838,392.0526,468.8981C391.00574,467.7317,390.10846,466.58716,389.43616,465.5913L389.42847,465.59152C388.67944,463.68384,388.5401,463.31372,388.1717,462.28915C387.96704,461.72052,387.73596,461.08316,387.65753,460.8825C387.24762,459.76846,386.54462,457.49744,386.17682,456.10464C385.6953,454.24387,385.69714,452.99368,386.18536,451.0583C386.5214,449.71207,386.8133,448.89746,387.83722,446.39764C389.30035,442.83923,389.47296,442.2396,389.78864,439.75146C390.31818,435.59427,390.1156,431.7063,389.19296,428.0903C388.17825,424.13306,386.25595,420.63818,383.58954,417.90826C379.15585,413.36917,372.8057,410.93655,365.38968,410.93655 Z M295.045,563.6939C295.44434,563.6939,295.65414,564.3662,295.6819,565.69446C295.713,567.17725,295.02356,568.0786,293.9558,568.101C293.94836,568.10114,293.9408,568.10126,293.9333,568.1013C293.92725,568.1014,293.92117,568.1014,293.91507,568.1014C293.6233,568.1014,293.30402,568.0368,292.9641,567.9013C292.22223,567.6711,292.27454,567.24005,293.40503,565.49646C294.11957,564.29785,294.66156,563.70184,295.03748,563.6939 Z M300.53464,566.76013C301.1432,566.76013,301.92313,567.047,302.3526,567.45874C303.4181,568.4807,303.3352,570.3866,302.23022,570.4097L302.22528,570.4098L302.22128,570.4098C301.72906,570.4098,300.91934,569.5711,300.34967,568.60626C299.39264,566.9065,299.45142,566.7824,300.49512,566.7605C300.50232,566.7604,300.50958,566.76025,300.51685,566.7602C300.52277,566.76013,300.5287,566.76013,300.53464,566.76013 Z"/> </g> <g style="fill:rgb(0,0,0); fill-opacity:1.0; stroke-linejoin: miter"> <path d="M213.07173,453.65094L195.58615,453.68707L195.58376,453.6866L196.18652,551.89075L202.36034,551.8215L202.34604,562.0557L186.69934,562.032L186.64351,562.03174L186.63783,578.89777L186.6397,578.89777Q192.00867,586.9538,198.53316,594.5345L198.53316,594.5345C203.85315,594.52344,208.95158,594.5174,213.47163,594.5174C223.52371,594.5174,230.71518,594.54736,231.12123,594.61975L231.12126,594.61975C231.37746,594.61975,231.63861,606.5973,231.81071,623.0642L231.81302,623.0642Q231.81302,623.0642,231.81303,623.0642L231.81071,623.0642C231.81207,623.19495,231.81343,623.3259,231.81479,623.4572L231.83284,623.45703Q234.28523,624.8227,236.77483,626.0908L236.77487,626.0908Q236.78302,626.0956,236.79118,626.10034L236.79356,626.10034Q239.9573,627.71124,243.1811,629.1646L243.18149,629.16455C243.20468,608.836,243.43831,594.866,243.725,594.6348C243.92006,594.5166,250.61528,594.3975,260.67078,594.3039C267.06793,594.2443,274.82507,594.1951,283.1338,594.1632C289.19135,594.13995,294.94537,594.1021,300.08423,594.05426C313.07315,593.9333,322.1313,593.7473,322.22186,593.56335C322.41278,593.24304,323.81744,592.4699,325.28607,591.76086C328.3517,590.40485,328.86044,589.5716,328.8467,586.0527C328.8394,584.1341,328.38797,583.2392,326.3973,581.328L323.95685,578.97015L223.1202,579.3595L223.14468,562.0872L207.30295,562.06323L207.31917,551.7658L213.66797,551.6945L213.07173,453.65094 Z"/> </g> <g style="fill:rgb(255,255,255); fill-opacity:1.0; stroke-linejoin: miter"> <path d="M368.35266,434.8366Q365.29633,434.4296,362.7577,436.24408Q360.27234,438.1445,359.77496,441.2239Q359.37457,444.32922,361.17883,446.82733Q363.06342,449.30283,366.1535,449.81067Q369.20917,450.22495,371.7531,448.4161Q374.24292,446.52045,374.74664,443.4423Q375.16254,440.35046,373.33618,437.81116Q371.44635,435.33838,368.35492,434.83688"/> </g> <g style="fill:rgb(255,255,255); fill-opacity:1.0; stroke-linejoin: miter"> <path d="M359.66202,411.3538C358.5873,411.5343,355.81308,412.09857,355.4041,412.22397C355.26978,412.26483,354.8131,412.40485,354.38147,412.52792C354.34338,412.53925,354.3051,412.55072,354.2671,412.56223L354.27136,412.56213L364.5498,438.4276L370.7306,437.76776L359.66635,411.35367 Z"/> </g> <g style="fill:rgb(255,255,255); fill-opacity:1.0; stroke-linejoin: miter"> <path d="M363.83984,444.6075Q362.4392,446.3632,350.62347,457.2232Q350.21643,457.74454,350.66473,458.2304Q351.11438,458.58426,351.59448,458.23114Q361.9563,448.69363,363.77582,446.72067L364.8694,445.5578L363.85492,444.62177"/> </g> <g style="fill:rgb(255,255,255); fill-opacity:1.0; stroke-linejoin: miter"> <path d="M350.17102,456.43726Q349.4546,456.3628,348.8874,456.79605Q348.32745,457.25134,348.23383,457.95544Q348.15723,458.66476,348.58868,459.23642Q349.04297,459.79828,349.74664,459.89328Q350.46265,459.97168,351.03174,459.54047Q351.59387,459.08704,351.6902,458.3832Q351.7677,457.66324,351.336,457.09567Q350.8816,456.53387,350.17792,456.43805"/> </g> <g style="fill:rgb(6,0,0); fill-opacity:1.0; stroke-linejoin: miter"> <path d="M367.66187,439.6961Q366.5752,439.548,365.6869,440.1826Q364.81134,440.85263,364.63416,441.91873Q364.48267,443.00534,365.11865,443.8997Q365.77698,444.76938,366.85693,444.9535Q367.94348,445.10278,368.8332,444.4707Q369.7105,443.80203,369.88934,442.73572Q370.04218,441.64954,369.40826,440.75476Q368.7517,439.88345,367.67212,439.6976"/> </g> </g> </svg>