<?xml version="1.0" encoding="UTF-8"?>
<svg width="334.94" height="334.94" enable-background="new 0 0 595.28 841.89" viewBox="0 0 334.93584 334.93505" xmlns="http://www.w3.org/2000/svg">
 <g transform="translate(-129.98 -252.57)">
  <path d="m412.139,429.997c6.872,1.771 13.684,3.749 20.398,5.931-7.093.574-14.16.937-21.191,1.088-.126,1.076-.372,2.131-.546,3.197 8.408.56 16.863.925 25.332,1.09l10.78,1.64c.011.191-10.811,8.93-11.136,8.664l4.252.967c4.039-2.696 7.759-5.699 11.649-8.906l.37-2.883 3.509.467 .554-4.385-3.521-.369c.137-1.119.188-2.246.286-3.368-2.824-4.627-6.012-8.995-9.169-13.095h-4.361c.318-.213 8.903,12.487 8.727,12.694l-10.867-.905c-8.251-1.985-16.521-3.741-24.8-5.267l-.266,3.44z" fill="#fbed65"/>
  <path d="m458.282,446.707c-2.835-.491-4.682-3.9-4.253-7.634 .539-3.721 2.981-6.606 5.931-6.402 2.867.198 5.128,3.647 4.554,7.665-.466,4.03-3.323,6.873-6.232,6.371z" fill="#fbed65"/>
  <path d="m407.096,455.257c6.25,3.24 12.438,6.686 18.555,10.335-6.976-1.003-14.024-2.262-20.931-3.697l-1.184,3.015c8.051,2.422 16.169,4.655 24.368,6.706l10.139,4.012c.059.229-12.55,6.273-12.719,5.983l3.927,1.895c4.365-1.803 8.94-3.773 13.274-6.104l1.064-2.706 3.315,1.241c.567-1.361.979-2.78 1.472-4.169l-3.349-1.147 1.083-3.209c-1.82-5.173-3.77-10.104-6.083-14.838l-4.252-.967c.417-.13 5.95,14.176 5.742,14.343l-10.391-3.309c-7.54-3.76-15.306-7.345-23.047-10.677-.324,1.099-.581,2.219-.983,3.293z" fill="#948e41"/>
  <path d="m448.32 481.86c-2.703-1.133-3.71-4.86-2.412-8.39 1.212-3.559 4.444-5.762 7.232-4.918s4.018 4.652 2.703 8.495c-1.4 3.813-4.85 5.936-7.523 4.813z" fill="#948e41"/>
  <path d="m396.511,478.735c5.431,4.595 10.631,9.302 15.764,14.216-6.634-2.573-13.117-5.304-19.541-8.249l-1.887,2.644c7.321,4.161 14.761,8.163 22.312,12.002l8.985,6.17c-.032.208-13.614,3.332-13.777,2.965-.182-.145 3.408,2.721 3.408,2.721 4.767-.703 9.513-1.715 14.343-2.956l1.615-2.412 2.954,1.949 2.385-3.72-3.008-1.867c.623-.94 1.193-1.914 1.749-2.896-.549-5.411-1.476-10.717-2.562-15.796l-3.927-1.895c.396-.049 2.578,15.121 2.339,15.237l-9.383-5.546c-6.568-5.386-13.256-10.571-20.052-15.553l-1.717,2.986z" fill="#dd181a"/>
  <path d="m430.748,513.871c-2.381-1.706-2.476-5.522-.495-8.719 2.075-3.132 5.6-4.627 8.135-3.178 2.525,1.445 2.984,5.499.749,8.882-2.143,3.448-6.032,4.706-8.389,3.015z" fill="#dd181a"/>
  <path d="m380.925,499.298c4.225,5.639 8.35,11.478 12.244,17.387-5.907-3.988-11.663-8.126-17.261-12.405-.767.768-1.584,1.479-2.411,2.178 6.226,5.688 12.624,11.272 19.098,16.644l7.396,8.007c-.065.203-14.014.234-14.088-.16l2.721,3.408c4.816.389 9.643.414 14.637.293l2.104-2.003 2.45,2.556c1.051-1.029 2.157-2.002 3.157-3.082l-2.519-2.486 2.335-2.447c.676-5.378.97-10.75.986-15.982l-3.408-2.721c.456.088-.824,15.335-1.08,15.392l-7.919-7.489c-5.206-6.706-10.518-13.195-16.091-19.611-.724.891-1.573,1.674-2.351,2.521z" fill="#40a62b"/>
  <path d="m406.55 541.18c-1.905-2.149-1.276-6.026 1.44-8.618 2.684-2.623 6.46-3.293 8.626-1.3 2.126 1.952 1.668 5.999-1.228 8.831-2.928 2.8-6.875 3.299-8.838 1.087z" fill="#40a62b"/>
  <path d="m361.187,515.929c2.868,6.428 5.561,12.977 8.072,19.64-4.838-5.135-9.559-10.49-14.077-15.924l-2.81,1.623c4.793,6.903 9.763,13.713 14.905,20.424l5.435,9.448c-.097.213-13.73-2.902-13.683-3.234l1.895,3.927c4.543,1.31 9.347,2.605 14.191,3.485l2.515-1.448 1.822,3.035c1.281-.729 2.494-1.566 3.743-2.347l-1.905-2.983 2.847-1.828c1.796-5.18 3.331-10.263 4.486-15.391l-2.721-3.408c.401.157-4.19,14.779-4.447,14.793l-6.063-9.058c-3.576-7.667-7.399-15.287-11.379-22.726-.948.65-1.846,1.372-2.826,1.972z" fill="#5bc3e5"/>
  <path d="m376.871,562.418c-1.414-2.575.13-6.102 3.33-8.066 3.163-2.027 7.076-1.717 8.716.659 1.672,2.422.246,6.14-3.17,8.324-3.456,2.121-7.486,1.619-8.876-.917z" fill="#5bc3e5"/>
  <path d="m338.273,527.71c1.388,6.975 2.535,13.914 3.486,20.945-3.586-6.143-6.965-12.344-10.143-18.623l-3.117.877c3.13,7.822 6.453,15.594 9.969,23.306l3.183,10.425c-.162.124-12.728-5.882-12.627-6.281l.967,4.252c4.171,2.446 8.504,4.57 13.067,6.64 .939-.247 1.847-.594 2.77-.893l1.097,3.365 4.185-1.417-1.19-3.334c1.076-.344 2.121-.771 3.173-1.184 2.944-4.571 5.52-9.308 7.832-13.956 0,0-1.995-4.136-1.895-3.927 .342.21-7.396,13.438-7.658,13.38l-3.889-10.183c-1.786-8.304-3.791-16.524-6.01-24.652l-3.2,1.26z" fill="#6a130f"/>
  <path d="m343.175,576.529c-.794-2.804 1.506-5.873 5.051-7.132 3.581-1.149 7.266-.146 8.35,2.576 1.074,2.693-1.087,6.173-4.953,7.42-3.831,1.355-7.654-.058-8.448-2.864z" fill="#6a130f"/>
  <path d="m313.326,534.064c-.219,7.044-.648,14.121-1.29,21.222-2.117-6.75-4.037-13.643-5.737-20.481l-3.243.236c1.313,8.337 2.819,16.594 4.525,24.878l.776,10.871c-.178.161-11.09-8.604-10.905-8.862v4.361c3.519,3.124 7.275,6.432 11.248,9.31l2.894-.222 .317,3.526c1.47-.089 2.932-.272 4.393-.464l-.414-3.516 3.358-.428c3.873-3.859 7.48-7.736 10.743-11.886l-.967-4.252c.297.312-10.2,11.523-10.444,11.364l-1.511-10.795c.125-8.438.009-16.918-.341-25.384-1.124.229-2.258.404-3.402.522z" fill="#f2a7bd"/>
  <path d="m307.192,582.763c-.149-2.916 2.767-5.491 6.508-5.798 3.729-.465 7.109,1.479 7.555,4.362 .444,2.879-2.453,5.645-6.479,6.14-4.037.337-7.435-1.798-7.584-4.704z" fill="#f2a7bd"/>
  <path d="m297.452,534.006c29.978.116 59.455-12.117 80.589-33.383 21.264-21.135 33.495-50.613 33.379-80.589h5.84c.129,31.489-12.747,62.524-35.09,84.718-22.193,22.343-53.229,35.219-84.718,35.09v-5.836z" fill="#95c048"/>
  <path d="m287.489,534.721c-1.772,6.872-3.749,13.684-5.931,20.398-.574-7.093-.936-14.16-1.088-21.191-1.076-.125-2.13-.372-3.197-.546-.56,8.408-.924,16.863-1.089,25.332l-1.639,10.78c-.192.011-8.93-10.811-8.665-11.136 .051-.227-.967,4.252-.967,4.252 2.697,4.039 5.7,7.759 8.906,11.649l2.883.37-.467,3.509 4.385.554 .37-3.521c1.119.137 2.246.188 3.368.286 4.626-2.824 8.995-6.012 13.094-9.169v-4.361c.213.318-12.487,8.903-12.694,8.727l.905-10.867c1.985-8.251 3.741-16.521 5.267-24.8l-3.441-.266z" fill="#fbed65"/>
  <path d="m270.779,580.864c.491-2.835 3.9-4.682 7.634-4.253 3.721.539 6.606,2.981 6.402,5.931-.197,2.867-3.647,5.128-7.665,4.554-4.03-.466-6.872-3.323-6.371-6.232z" fill="#fbed65"/>
  <path d="m262.229,529.678c-3.24,6.25-6.686,12.438-10.334,18.555 1.003-6.976 2.262-14.023 3.698-20.931l-3.015-1.184c-2.422,8.051-4.656,16.169-6.707,24.368l-4.012,10.139c-.228.059-6.273-12.55-5.983-12.719l-1.895,3.927c1.803,4.365 3.774,8.94 6.104,13.274l2.705,1.064-1.241,3.315c1.361.568 2.78.979 4.168,1.472l1.148-3.349 3.208,1.083c5.173-1.82 10.104-3.77 14.838-6.083l.967-4.252c.13.417-14.176,5.95-14.342,5.742l3.309-10.391c3.759-7.54 7.344-15.306 10.676-23.047-1.097-.324-2.217-.58-3.292-.983z" fill="#948e41"/>
  <path d="m235.62 570.9c1.133-2.703 4.86-3.71 8.39-2.412 3.56 1.213 5.763 4.444 4.918 7.232s-4.652 4.018-8.495 2.703c-3.812-1.4-5.935-4.849-4.813-7.523z" fill="#948e41"/>
  <path d="m238.751,519.093c-4.595,5.431-9.302,10.631-14.215,15.764 2.573-6.634 5.303-13.117 8.249-19.541l-2.644-1.887c-4.162,7.321-8.164,14.761-12.001,22.312l-6.17,8.985c-.208-.032-3.332-13.614-2.965-13.777l-2.721,3.408c.704,4.767 1.715,9.513 2.957,14.343l2.412,1.615-1.949,2.954 3.719,2.385 1.867-3.008c.941.623 1.915,1.193 2.897,1.749 5.411-.549 10.717-1.476 15.796-2.562l1.895-3.927c.048.396-15.121,2.578-15.238,2.339l5.546-9.383c5.386-6.568 10.572-13.256 15.553-20.052l-2.988-1.717z" fill="#dd181a"/>
  <path d="m203.615,553.33c1.706-2.381 5.522-2.476 8.719-.495 3.132,2.075 4.627,5.6 3.177,8.135-1.445,2.525-5.499,2.984-8.882.749-3.446-2.143-4.704-6.031-3.014-8.389z" fill="#dd181a"/>
  <path d="m218.188,503.507c-5.639,4.225-11.478,8.35-17.387,12.244 3.989-5.907 8.126-11.663 12.406-17.261-.767-.767-1.479-1.584-2.178-2.411-5.688,6.226-11.271,12.624-16.643,19.098l-8.007,7.395c-.203-.064-.233-14.013.16-14.087l-3.407,2.721c-.39,4.816-.415,9.643-.294,14.637l2.004,2.104-2.556,2.449c1.029,1.051 2.002,2.158 3.081,3.158l2.487-2.519 2.446,2.335c5.378.676 10.75.97 15.982.986l2.721-3.408c-.087.456-15.334-.823-15.391-1.08l7.489-7.919c6.706-5.206 13.196-10.518 19.611-16.091-.894-.724-1.677-1.573-2.524-2.351z" fill="#40a62b"/>
  <path d="m176.31 529.13c2.149-1.905 6.026-1.276 8.618 1.44 2.623 2.684 3.293 6.46 1.299 8.626-1.952 2.126-5.999 1.668-8.831-1.228-2.799-2.928-3.298-6.875-1.086-8.838z" fill="#40a62b"/>
  <path d="m201.558,483.769c-6.428,2.868-12.978,5.561-19.641,8.072 5.135-4.838 10.49-9.559 15.925-14.077l-1.624-2.81c-6.903,4.793-13.713,9.763-20.423,14.905l-9.448,5.435c-.213-.097 2.902-13.73 3.234-13.683l-3.927,1.895c-1.309,4.543-2.605,9.347-3.485,14.191l1.449,2.515-3.036,1.822c.728,1.281 1.566,2.494 2.347,3.742l2.983-1.905 1.829,2.848c5.179,1.796 10.262,3.33 15.391,4.486l3.407-2.721c-.157.401-14.779-4.191-14.792-4.447l9.057-6.063c7.667-3.576 15.287-7.399 22.726-11.379-.651-.948-1.373-1.846-1.972-2.826z" fill="#5bc3e5"/>
  <path d="m155.068,499.453c2.576-1.414 6.103.13 8.067,3.33 2.027,3.163 1.716,7.076-.66,8.716-2.422,1.672-6.14.246-8.325-3.171-2.12-3.455-1.618-7.485.918-8.875z" fill="#5bc3e5"/>
  <path d="m189.776,460.855c-6.974,1.388-13.915,2.535-20.945,3.486 6.142-3.586 12.344-6.965 18.623-10.143l-.877-3.117c-7.822,3.13-15.593,6.453-23.306,9.969l-10.425,3.183c-.124-.162 5.882-12.728 6.281-12.627l-4.252.967c-2.445,4.171-4.569,8.504-6.639,13.067 .247.939.593,1.847.892,2.77l-3.366,1.097 1.417,4.185 3.334-1.19c.343,1.076.772,2.121 1.184,3.172 4.571,2.945 9.308,5.52 13.955,7.833l3.927-1.895c-.209.342-13.439-7.396-13.379-7.658l10.182-3.889c8.304-1.786 16.524-3.791 24.652-6.01l-1.258-3.2z" fill="#6a130f"/>
  <path d="m140.957,465.757c2.804-.794 5.873,1.506 7.132,5.051 1.149,3.581.146,7.266-2.577,8.35-2.693,1.073-6.172-1.087-7.419-4.953-1.355-3.831.058-7.654 2.864-8.448z" fill="#6a130f"/>
  <path d="m183.422,435.908c-7.044-.219-14.121-.648-21.222-1.29 6.75-2.117 13.644-4.037 20.482-5.737l-.236-3.243c-8.337,1.313-16.595,2.819-24.878,4.525l-10.872.776c-.161-.178 8.604-11.09 8.862-10.905h-4.36c-3.125,3.519-6.432,7.275-9.31,11.248l.222,2.894-3.526.317c.088,1.47.272,2.932.463,4.393l3.516-.414 .427,3.358c3.859,3.873 7.736,7.48 11.885,10.743l4.252-.967c-.311.297-11.523-10.2-11.363-10.444l10.794-1.511c8.438.125 16.918.009 25.384-.341-.227-1.124-.402-2.258-.52-3.402z" fill="#f2a7bd"/>
  <path d="m134.724,429.774c2.916-.149 5.491,2.767 5.798,6.508 .464,3.729-1.48,7.108-4.363,7.555-2.878.444-5.645-2.453-6.14-6.479-.336-4.037 1.798-7.435 4.705-7.584z" fill="#f2a7bd"/>
  <path d="m183.48,420.034c-.116,29.977 12.118,59.455 33.383,80.589 21.135,21.264 50.613,33.495 80.589,33.379v5.84c-31.489.129-62.524-12.747-84.717-35.09-22.343-22.193-35.219-53.229-35.091-84.718h5.836z" fill="#95c048"/>
  <path d="m182.765,410.071c-6.872-1.772-13.683-3.75-20.398-5.931 7.093-.574 14.16-.936 21.191-1.088 .125-1.076.372-2.13.546-3.197-8.409-.56-16.864-.924-25.333-1.089l-10.78-1.64c-.011-.192 10.811-8.93 11.135-8.664l-4.252-.967c-4.038,2.697-7.758,5.7-11.649,8.906l-.37,2.883-3.509-.467-.553,4.385 3.521.37c-.137,1.119-.189,2.246-.286,3.368 2.824,4.626 6.011,8.995 9.169,13.094h4.36c-.318.213-8.903-12.487-8.726-12.694l10.867.905c8.251,1.985 16.521,3.741 24.801,5.267l.266-3.441z" fill="#fbed65"/>
  <path d="m136.622,393.361c2.835.491 4.682,3.9 4.253,7.634-.539,3.721-2.981,6.606-5.93,6.402-2.868-.197-5.128-3.647-4.555-7.665 .466-4.03 3.323-6.872 6.232-6.371z" fill="#fbed65"/>
  <path d="m187.809,384.811c-6.25-3.24-12.438-6.686-18.555-10.335 6.976,1.003 14.024,2.262 20.93,3.698l1.184-3.015c-8.051-2.422-16.169-4.656-24.368-6.706l-10.139-4.012c-.058-.228 12.551-6.273 12.72-5.983l-3.927-1.895c-4.366,1.803-8.94,3.774-13.274,6.104l-1.064,2.706-3.315-1.241c-.568,1.361-.979,2.78-1.472,4.168l3.349,1.147-1.083,3.209c1.82,5.173 3.77,10.104 6.083,14.838l4.252.967c-.417.13-5.95-14.176-5.742-14.343l10.391,3.309c7.54,3.759 15.305,7.344 23.047,10.676 .323-1.097.58-2.217.983-3.292z" fill="#948e41"/>
  <path d="m146.58 358.21c2.702 1.133 3.71 4.86 2.412 8.39-1.213 3.56-4.445 5.762-7.233 4.918s-4.017-4.652-2.704-8.495c1.402-3.813 4.852-5.936 7.525-4.813z" fill="#948e41"/>
  <path d="m198.394,361.333c-5.431-4.595-10.631-9.301-15.764-14.215 6.634,2.574 13.117,5.303 19.541,8.25l1.886-2.644c-7.321-4.162-14.76-8.164-22.312-12.001l-8.984-6.17c.032-.208 13.613-3.332 13.776-2.965 .182.145-3.407-2.721-3.407-2.721-4.767.704-9.513,1.715-14.343,2.957l-1.615,2.412-2.955-1.949-2.384,3.719 3.008,1.867c-.623.941-1.193,1.915-1.749,2.896 .549,5.411 1.476,10.717 2.562,15.796l3.927,1.895c-.397.048-2.579-15.121-2.339-15.238l9.383,5.546c6.569,5.386 13.255,10.572 20.052,15.553l1.717-2.988z" fill="#dd181a"/>
  <path d="m164.16 326.2c2.381 1.706 2.475 5.522 0.495 8.719-2.074 3.132-5.6 4.627-8.134 3.177s-2.984-5.499-0.75-8.882c2.143-3.446 6.032-4.704 8.389-3.014z" fill="#dd181a"/>
  <path d="m213.979,340.771c-4.224-5.639-8.35-11.478-12.244-17.387 5.907,3.989 11.663,8.126 17.261,12.406 .766-.768 1.583-1.479 2.411-2.178-6.226-5.688-12.625-11.272-19.098-16.644l-7.395-8.007c.065-.203 14.013-.234 14.087.16l-2.721-3.407c-4.816-.39-9.642-.415-14.637-.294l-2.104,2.003-2.45-2.556c-1.051,1.029-2.157,2.002-3.158,3.082l2.519,2.487-2.335,2.446c-.676,5.378-.97,10.75-.986,15.982l3.407,2.721c-.456-.087.824-15.334 1.081-15.391l7.919,7.489c5.206,6.706 10.517,13.196 16.09,19.611 .727-.894 1.575-1.677 2.353-2.523z" fill="#40a62b"/>
  <path d="m188.35 298.89c1.906 2.149 1.276 6.025-1.44 8.618-2.685 2.623-6.46 3.293-8.627 1.299-2.125-1.952-1.667-5.999 1.228-8.831 2.928-2.799 6.876-3.298 8.839-1.086z" fill="#40a62b"/>
  <path d="m233.718,324.14c-2.868-6.428-5.561-12.977-8.072-19.64 4.837,5.135 9.558,10.49 14.077,15.925l2.81-1.624c-4.793-6.903-9.763-13.713-14.906-20.423l-5.434-9.448c.096-.213 13.73,2.902 13.682,3.234l-1.895-3.927c-4.542-1.309-9.346-2.605-14.191-3.485l-2.515,1.449-1.822-3.035c-1.281.728-2.494,1.566-3.743,2.347l1.905,2.983-2.847,1.829c-1.796,5.179-3.331,10.262-4.486,15.391l2.721,3.407c-.401-.157 4.191-14.779 4.447-14.792l6.063,9.057c3.576,7.667 7.399,15.287 11.379,22.726 .947-.653 1.846-1.375 2.827-1.974z" fill="#5bc3e5"/>
  <path d="m218.033,277.65c1.415,2.576-.13,6.103-3.33,8.067-3.163,2.027-7.076,1.717-8.716-.659-1.671-2.422-.245-6.14 3.171-8.325 3.455-2.121 7.486-1.619 8.875.917z" fill="#5bc3e5"/>
  <path d="m256.631,312.358c-1.389-6.975-2.536-13.915-3.487-20.945 3.586,6.142 6.965,12.344 10.143,18.623l3.117-.877c-3.129-7.822-6.453-15.593-9.969-23.306l-3.183-10.425c.162-.124 12.728,5.882 12.627,6.281 .051.227-.966-4.252-.966-4.252-4.171-2.445-8.505-4.569-13.068-6.639-.938.247-1.846.593-2.769.893l-1.097-3.366-4.185,1.417 1.19,3.334c-1.076.343-2.121.772-3.172,1.184-2.945,4.571-5.52,9.308-7.833,13.956l1.895,3.927c-.342-.209 7.396-13.439 7.658-13.379l3.889,10.182c1.787,8.304 3.791,16.524 6.01,24.652l3.2-1.26z" fill="#6a130f"/>
  <path d="m251.73,263.539c.793,2.804-1.507,5.873-5.051,7.132-3.582,1.149-7.266.146-8.35-2.577-1.074-2.693 1.086-6.172 4.953-7.419 3.83-1.355 7.654.058 8.448,2.864z" fill="#6a130f"/>
  <path d="m281.578,306.004c.219-7.044.648-14.121 1.29-21.222 2.117,6.75 4.037,13.644 5.737,20.482l3.243-.236c-1.314-8.337-2.819-16.595-4.525-24.878l-.776-10.872c.177-.161 11.09,8.604 10.905,8.862v-4.36c-3.519-3.125-7.275-6.432-11.248-9.31l-2.894.222-.317-3.526c-1.47.088-2.932.272-4.393.463l.414,3.516-3.359.428c-3.872,3.859-7.48,7.736-10.742,11.885l.966,4.252c-.297-.311 10.2-11.523 10.444-11.364l1.511,10.794c-.125,8.438-.009,16.918.34,25.384 1.126-.227 2.261-.402 3.404-.52z" fill="#f2a7bd"/>
  <path d="m287.712,257.306c.15,2.916-2.766,5.491-6.508,5.798-3.729.464-7.109-1.479-7.554-4.362s2.452-5.645 6.479-6.14c4.036-.337 7.434,1.797 7.583,4.704z" fill="#f2a7bd"/>
  <path d="m297.45 306.06c-29.977-0.116-59.455 12.118-80.589 33.383-21.264 21.135-33.496 50.613-33.378 80.589h-5.841c-0.128-31.489 12.748-62.524 35.091-84.718 22.193-22.343 53.228-35.219 84.717-35.09v5.836z" fill="#95c048"/>
  <path d="m307.415,305.347c1.771-6.872 3.749-13.683 5.931-20.398 .574,7.093.937,14.16 1.089,21.191 1.075.125 2.13.372 3.196.546 .561-8.408.925-16.864 1.09-25.332l1.64-10.78c.191-.011 8.93,10.811 8.664,11.135l.967-4.252c-2.696-4.039-5.699-7.758-8.906-11.649l-2.883-.37 .467-3.509-4.385-.553-.369,3.521c-1.119-.137-2.246-.189-3.368-.286-4.627,2.824-8.995,6.011-13.095,9.169v4.36c-.213-.318 12.487-8.903 12.694-8.726l-.904,10.867c-1.985,8.251-3.741,16.521-5.268,24.8l3.44.266z" fill="#fbed65"/>
  <path d="m324.125,259.204c-.491,2.835-3.9,4.682-7.634,4.253-3.721-.539-6.606-2.981-6.402-5.93 .198-2.868 3.647-5.128 7.665-4.555 4.03.466 6.873,3.323 6.371,6.232z" fill="#fbed65"/>
  <path d="m332.676,310.39c3.239-6.25 6.686-12.438 10.334-18.554-1.003,6.976-2.262,14.024-3.697,20.93l3.015,1.184c2.422-8.051 4.655-16.169 6.706-24.368l4.012-10.139c.229-.058 6.273,12.55 5.983,12.719l1.895-3.927c-1.803-4.365-3.773-8.94-6.104-13.274l-2.705-1.064 1.24-3.315c-1.361-.568-2.78-.979-4.169-1.472l-1.147,3.349-3.209-1.083c-5.173,1.82-10.104,3.77-14.838,6.083l-.967,4.252c-.13-.417 14.176-5.95 14.343-5.742l-3.309,10.39c-3.76,7.541-7.345,15.306-10.677,23.047 1.098.325 2.219.582 3.294.984z" fill="#948e41"/>
  <path d="m359.28 269.17c-1.132 2.702-4.86 3.709-8.39 2.412-3.559-1.212-5.762-4.444-4.918-7.232s4.652-4.018 8.495-2.704c3.813 1.4 5.936 4.85 4.813 7.524z" fill="#948e41"/>
  <path d="m356.153,320.976c4.595-5.431 9.302-10.631 14.216-15.764-2.573,6.634-5.304,13.117-8.249,19.541l2.644,1.886c4.162-7.321 8.163-14.76 12.002-22.312l6.17-8.985c.208.032 3.332,13.614 2.965,13.777l2.722-3.408c-.704-4.767-1.716-9.513-2.957-14.342l-2.412-1.616 1.949-2.955-3.72-2.384-1.866,3.008c-.941-.624-1.915-1.193-2.897-1.749-5.41.548-10.717,1.476-15.796,2.561l-1.895,3.927c-.049-.396 15.121-2.579 15.238-2.339l-5.547,9.383c-5.386,6.569-10.571,13.255-15.553,20.052l2.986,1.719z" fill="#dd181a"/>
  <path d="m391.289,286.738c-1.706,2.381-5.522,2.475-8.719.495-3.132-2.075-4.627-5.6-3.177-8.134 1.444-2.526 5.498-2.984 8.882-.75 3.447,2.143 4.704,6.032 3.014,8.389z" fill="#dd181a"/>
  <path d="m376.716,336.562c5.639-4.225 11.478-8.35 17.387-12.245-3.988,5.908-8.126,11.664-12.405,17.261 .768.767 1.479,1.583 2.178,2.411 5.688-6.226 11.272-12.625 16.644-19.098l8.007-7.395c.203.065.234,14.013-.16,14.087-.182.145 3.408-2.721 3.408-2.721 .389-4.816.414-9.642.293-14.637l-2.003-2.104 2.556-2.45c-1.029-1.051-2.002-2.158-3.081-3.158l-2.487,2.519-2.446-2.335c-5.379-.676-10.751-.97-15.982-.986l-2.722,3.408c.088-.456 15.335.824 15.392,1.081l-7.489,7.919c-6.706,5.206-13.195,10.518-19.611,16.09 .891.726 1.674,1.574 2.521,2.353z" fill="#40a62b"/>
  <path d="m418.6 310.94c-2.149 1.906-6.026 1.276-8.618-1.44-2.623-2.684-3.293-6.46-1.3-8.626 1.952-2.125 6-1.667 8.831 1.228 2.8 2.927 3.299 6.875 1.087 8.838z" fill="#40a62b"/>
  <path d="m393.347,356.3c6.428-2.868 12.977-5.561 19.64-8.072-5.135,4.837-10.49,9.558-15.924,14.077l1.623,2.81c6.903-4.793 13.713-9.763 20.424-14.906l9.448-5.434c.213.096-2.902,13.73-3.234,13.682l3.927-1.895c1.31-4.542 2.605-9.346 3.485-14.191l-1.448-2.515 3.035-1.822c-.729-1.281-1.566-2.494-2.347-3.743l-2.983,1.905-1.828-2.847c-5.18-1.796-10.263-3.331-15.391-4.486l-3.408,2.721c.157-.401 14.779,4.191 14.793,4.447l-9.058,6.063c-7.667,3.576-15.287,7.399-22.726,11.379 .65.947 1.372,1.846 1.972,2.827z" fill="#5bc3e5"/>
  <path d="m439.836,340.615c-2.575,1.414-6.102-.13-8.066-3.33-2.027-3.163-1.717-7.076.659-8.716 2.422-1.671 6.14-.245 8.324,3.171 2.121,3.455 1.619,7.486-.917,8.875z" fill="#5bc3e5"/>
  <path d="m405.128,379.213c6.975-1.389 13.915-2.536 20.945-3.487-6.143,3.586-12.345,6.965-18.623,10.143l.877,3.117c7.822-3.129 15.594-6.453 23.306-9.969l10.425-3.183c.124.162-5.882,12.728-6.281,12.627l4.252-.967c2.446-4.171 4.57-8.504 6.64-13.068-.247-.938-.594-1.846-.893-2.769l3.365-1.097-1.417-4.185-3.334,1.19c-.344-1.076-.771-2.121-1.184-3.172-4.571-2.945-9.308-5.52-13.956-7.833l-3.927,1.895c.21-.342 13.438,7.396 13.38,7.658l-10.183,3.889c-8.304,1.787-16.524,3.791-24.652,6.01l1.26,3.201z" fill="#6a130f"/>
  <path d="m453.947,374.312c-2.804.793-5.873-1.507-7.132-5.051-1.149-3.582-.146-7.266 2.576-8.35 2.693-1.074 6.173,1.086 7.42,4.953 1.355,3.83-.058,7.653-2.864,8.448z" fill="#6a130f"/>
  <path d="m411.482,404.16c7.044.218 14.121.648 21.222,1.29-6.75,2.118-13.643,4.037-20.481,5.738l.236,3.243c8.337-1.314 16.594-2.819 24.878-4.525l10.871-.776c.161.177-8.604,11.09-8.862,10.905h4.361c3.124-3.519 6.432-7.275 9.31-11.249l-.222-2.893 3.526-.317c-.089-1.47-.272-2.932-.464-4.393l-3.516.415-.428-3.359c-3.859-3.872-7.736-7.48-11.886-10.743l-4.252.967c.312-.297 11.523,10.2 11.364,10.444l-10.795,1.511c-8.438-.125-16.918-.009-25.384.34 .229,1.124.404,2.259.522,3.402z" fill="#f2a7bd"/>
  <path d="m460.181,410.294c-2.916.149-5.491-2.766-5.798-6.508-.465-3.729 1.479-7.109 4.362-7.554s5.645,2.452 6.14,6.479c.337,4.036-1.798,7.435-4.704,7.583z" fill="#f2a7bd"/>
  <path d="m411.42 420.03c0.116-29.977-12.117-59.456-33.383-80.589-21.135-21.264-50.613-33.496-80.589-33.378v-5.841c31.489-0.128 62.524 12.748 84.718 35.091 22.343 22.193 35.219 53.228 35.09 84.717h-5.836z" fill="#95c048"/>
  <path d="m412.03 420.38c0 63.402-51.406 114.81-114.81 114.81s-114.8-51.406-114.8-114.81c0-63.405 51.404-114.8 114.8-114.8s114.81 51.397 114.81 114.8z" fill="#95c048"/>
 </g>
</svg>
